<?xml version="1.0" encoding="utf-8"?>
<!-- Generator: Adobe Illustrator 16.0.0, SVG Export Plug-In . SVG Version: 6.00 Build 0)  -->
<!DOCTYPE svg PUBLIC "-//W3C//DTD SVG 1.1//EN" "http://www.w3.org/Graphics/SVG/1.1/DTD/svg11.dtd">
<svg version="1.1" id="Layer_1" xmlns="http://www.w3.org/2000/svg" xmlns:xlink="http://www.w3.org/1999/xlink" x="0px" y="0px"
	 width="1000px" height="735.56px" viewBox="0 0 1000 735.56" enable-background="new 0 0 1000 735.56" xml:space="preserve">
<path d="M85.651,500.275c0,62.596,16.508,132.997,46.122,190.752c53.47-49.788,193.945-208.251,210.026-226.691
	c24.454-28.041,35.059-10.198,48.182-25.843c7.083-8.651,11.207-11.893,14.307-13.688c5.049-2.958,10.823-10.037,13.627-12.182
	c2.864-2.171,9.378-10.823,14.414-15.133c5.083-4.282,15.136-10.83,25.224-19.517c10.057-8.558,27.271-28.673,45.963-28.673
	c22.232,0,31.551,15.046,33.521,16.875c1.634,1.788,15.294,13.842,17.56,16.142c2.44,2.709,17.163,14.353,25.13,14.353
	c7.839,0,13.674,8.687,17.956,12.935c9.345,8.592,48.371,49.473,61.097,58.22c5.782,3.939,11.16,3.213,15.409,6.548
	c4.376,3.146,6.514,5.317,9.021,6.044c2.447,0.753,10.79-1.419,20.505,10.763c4.478,3.053,5.728,3.59,5.728,3.59
	s13.15,11.96,17.883,20.484c4.249,7.301,102.966,138.321,138.287,185.18c32.754-59.416,51.51-127.68,51.51-200.319
	c0-229.583-186.247-415.643-415.871-415.643C271.634,84.593,85.588,270.686,85.651,500.275 M403.391,271.352
	c-6.813,15.294-11.772,26.246-18.051,40.659c-0.518,1.445-1.069,3.872,0.346,4.686c1.073,0.538,2.394,0.538,3.197,0
	c7.963-3.805,15.042-13.149,20.564-23.791l9.853-21.775h13.832l-3.748,8.182c-0.282,0.504-0.282,0.692,0,0.504
	c4.296-3.308,9.002-8.182,14.542-11.233c2.155-1.042,7.318-1.042,6.767,2.548c-0.252,3.18-2.77,5.667-4.091,8.686
	c-0.803,1.95-1.654,4.377-1.385,5.762c0.582,1.352,2.188,2.171,4.343,0.564c2.202-1.352,3.873-2.487,5.838-4.094
	c3.51-3.396,7.899-6.575,12.794-9.097c9.865-4.625,23.24-7.609,33.029-1.317c-6.797,15.295-11.96,26.75-18.521,41.258
	c-1.167,2.454-0.269,3.24,0.504,3.805c0.851,0.538,2.548,0.854,4.783-0.376c5.352-2.293,14.885-12.962,18.683-21.21
	c3.617-7.678,6.938-15.295,10.729-23.98h14.319l-3.966,8.431c0,0,0.309,0.255,0.551,0.255c3.818-3.496,13.782-11.489,21.137-9.849
	c4.054,0.847,5.99,5.755,5.674,9.345c4.706-3.368,9.573-7.456,16.363-9.096c9.902-2.421,13.755,4.437,10.703,10.984
	c-3.839,9.002-11.442,26.717-15.859,35.846c-0.551,0.976-0.551,2.992,0,3.463c1.136,0.847,3.032,0,3.865-0.471
	c4.928-4.155,7.638-6.864,11.442-12.37c1.075-9.54,6.252-18.319,13.473-25.62c7.536-8.524,19.624-15.039,31.173-11.234
	c4.027,1.352,6.797,5.506,7.819,9.601c0.585,2.171,1.103,3.24,1.103,5.728c6.023,4.377,13.93-2.804,17.197-8.215
	c0.887-2.205,1.936-4.659,2.555-6.293c3.509,0.222,10.285,0,14.238,0l-17.815,40.72c-1.13,2.427-1.385,3.778-1.385,5.668
	c0,1.445,1.606,1.734,3.294,1.445c4.955-0.787,12.914-10.447,16.941-18.663c4.612-10.098,8.988-18.534,13.405-28.639h14.4
	c-5.694,13.661-12.182,28.108-16.941,38.777c-1.063,2.231-2.38,4.403-1.641,7.429c0.578,1.385,2.501,1.096,3.63,0.598
	c6.253-3.623,17.036-15.61,20.761-23.012c3.872-8.78,6.763-15.321,10.823-23.792h14.925l-3.604,8.471
	c5.473-4.316,11.47-9.002,18.568-10.104c3.348-0.564,7.408-0.315,9.277,2.992c2.219,3.838,0.834,7.898-0.82,11.482
	c-4.054,9.284-8.76,19.422-12.854,28.45c-0.706,2.239-0.955,4.282,0.585,5.224c2.158,1.358,12.571-5.035,17.795-16.491
	c4.599-10.097,7.637-16.047,11.725-25.869h-7.631l2.125-4.464h7.697l10.932-23.731h14.709l-10.555,23.731h11.106l-2.186,4.464
	H785.57c-6.299,13.379-11.51,24.484-16.981,37.137c-2.205,4.282-4.356,11.489-3.254,15.866c0.833,2.42,3.852,2.984,6.588,2.138
	c8.45-2.897,14.198-10.104,19.153-17.815c0.222-0.753,4.578-0.188,4.343,0.383c-5.788,11.456-18.272,22.972-30.354,22.689
	c-3.576,0-7.415-2.171-9.539-5.257c-1.096-1.573-1.701-2.897-2.219-4.847c-0.8-3.086-0.585-6.575,0-9.917
	c-6.541,4.941-12.76,10.925-20.976,12.626c-3.623,0.564-8.229-0.76-9.096-4.659c-0.551-3.025-0.255-6.292,0.867-8.968
	c5.19-11.268,9.769-21.405,14.696-33.11c0.396-0.537,0-2.581-0.611-2.77c-0.739-0.753-3.146-0.753-5.325,0.82
	c-10.178,7.711-15.287,17.492-19.65,27.597c-3.133,6.797-6.373,13.661-9.66,20.33h-14.481c1.573-4.121,4.155-9.594,5.97-14.037
	c0-0.282-0.255-0.282-0.255,0c-5.93,5.983-13.701,12.813-21.305,14.797c-2.979,0.813-5.997-0.282-7.604-3.053
	c-1.714-2.742-2.266-6.803-0.646-10.387c0-0.188-0.235-0.188-0.457,0c-5.473,5.473-10.696,10.387-18.044,12.868
	c-8.249,2.487-15.657-3.268-10.447-15.295c1.398-3.24,5.52-12.363,10.132-23.254c-3.84,1.606-8.451,1.606-10.904,0.847
	c-0.316,0-0.316,0-0.316,0.256c-3.254,15.261-12.275,29.204-26.3,35.813c-6.729,3.273-14.44,4.121-21.271-0.504
	c-3.254-2.172-5.19-7.456-5.445-12.088c-7.066,7.112-15.013,16.088-25.978,14.515c-1.667-0.289-3.024-1.701-3.872-3.274
	c-2.406-4.128-0.961-8.531,0.551-12.121c5.225-10.884,9.647-21.022,14.791-33.23c0.914-1.762-1.54-3.053-3.228-2.205
	c-4.625,2.427-8.242,5.129-11.267,10.138c-1.809,2.172-3.254,4.275-4.263,6.985c-4.767,10.951-9.883,21.364-14.272,32.007h-14.851
	c6.696-14.985,12.881-29.426,19.462-44.223c0.612-1.351,0.283-3.301-0.518-3.805c-1.357-0.659-3.604,0.504-5.115,1.324
	c-3.59,2.48-6.643,5.755-9.097,9.883c-2.487,4.121-4.732,8.182-6.515,12.618l-11.018,24.202h-14.475
	c1.385-3.274,4.125-9.601,5.775-12.813c0-0.282-0.252-0.498-0.252-0.282c-7.929,6.581-18.081,15.079-25.459,13.66
	c-2.457-0.282-4.578-2.42-5.224-4.625c-0.487-2.77-0.299-5.257,0.313-7.583c0-0.35-0.313-0.35-0.611,0
	c-6.313,5.942-11.977,10.918-19.906,12.867c-4.612,1.042-8.767-1.949-10.323-5.284c-2-3.812-2.564-9.822,0.817-16.713
	c1.889-4.377,4.03-8.968,6.767-12.78c-1.685,0.854-4.878,1.042-7.096,0.854c-1.903-0.35-3.839-1.734-4.864-3.086
	c-1.193-1.352-1.385-3.806-1.385-5.412c0.191-0.315-0.582-0.315-1.133,0c-4.374,3.557-6.31,7.644-8.481,12.242l-12.618,28.391
	h-14.699l5.415-11.994c0.282-0.255,0-0.537-0.269-0.255c-7.664,6.83-16.915,14.515-24.36,13.096c-2.125-0.282-4.31-2.487-4.86-4.599
	c-0.552-2.514-0.283-5.284,0-7.677h-0.552c-5.997,6.01-11.725,10.924-19.654,12.558c-4.42,1.419-8.514-1.29-10.148-5.129
	c-2.235-5.54-1.385-11.207,0.581-16.491c5.601-14.729,16.111-25.398,30.323-33.332C379.564,267.795,393.555,266.188,403.391,271.352
	 M297.974,206.483c42.505,2.017,67.477,22.851,67.477,45.197c-0.03,39.967-63.382,46.797-63.382,46.797
	c-11.001,55.355-54.952,76.506-85.369,76.224c-40.804-0.343-40.219-33.358-38.774-37.702c1.671-4.94,4.219-9.378,9.379-9.378
	c5.116,0,9.381,4.188,9.381,9.378c0,3.181-1.624,6.104-4.266,7.678c-5.381,3.335-4.407,7.463-4.407,7.463
	c0,17.653,22.753,18.944,28.686,18.944c60.834,0,53.819-100.115,107.366-134.133c2.454-1.634,4.39,0,2.911,1.762
	c-16.726,20.9-23.082,54.696-23.082,54.696c25.916,0,42.925-24.579,42.925-41.729c0-29.305-26.387-41.513-48.845-41.513
	c-62.596,0-89.756,43.718-89.756,67.57s15.076,32.478,25.95,32.478c15.167,0,19.906-10.198,18.03-15.105
	c-2.988-7.772,1.197-14.286,5.903-14.286c1.842,0,8.057-0.282,8.057,10.729c0,10.515-15.076,21.184-31.55,21.184
	c-16.431,0-40.347-8.908-40.347-34.999C194.262,224.642,259.486,204.567,297.974,206.483 M358.072,317.738
	c5.442,0,13.059-9.821,17.436-18.252c4.42-9.284,6.669-14.48,11.99-26.219c0.313-0.564-0.222-0.564-0.74-0.564
	c-6.296,0-13.157,6.359-17.5,11.489c-5.224,6.326-13.738,18.313-15.059,27.065C353.336,315.883,355.521,317.738,358.072,317.738
	 M594.233,326.048c6.058,2.992,13.661-10.353,20.242-22.689c6.575-12.31,11.798-27.637,6.239-29.526
	c-6.239-2.48-14.172,9.506-20.787,21.815C593.434,307.917,588.459,323.278,594.233,326.048 M455.949,317.738
	c5.442,0,13.106-9.821,17.436-18.252c4.343-9.284,6.575-14.48,12.054-26.219c0.313-0.564-0.269-0.564-0.837-0.564
	c-6.262,0-13.153,6.359-17.543,11.489c-5.146,6.326-13.627,18.313-14.982,27.065C451.243,315.883,453.243,317.738,455.949,317.738
	 M400.321,515.254c1.415-3.052,5.902-12.336,5.604-16.047c0-0.666-1.576-1.795-2.992-0.504c-6.484,6.42-19.684,29.17-24.595,31.725
	c-11.281,5.506-16.175,18.689-19.466,23.852c-2.471,3.906-5.57,10.105-10.888,17.938c-4.706,6.803-10.087,16.9-12.023,20.457
	c-1.997,3.65-2.706,6.991,0.867,6.991c3.714,0,0.817,5.943-3.573,12.458c-2.548,3.812-8.733,22.063-10.575,27.005
	c-2.376,6.071-2.061,13.909-2.863,16.458c-0.834,2.486-12.76,27.825-15.863,33.392c-1.919,3.624-1.381,5.035-2.125,6.925
	c-1.085,2.548,0.269,3.146,2.125,1.445c2.33-2.293,15.029-21.621,18.901-23.947c3.855-2.393,7.349-5.916,7.853-14.285
	c0.551-8.249,5.993-10.515,10.054-15.456c4.155-4.78,9.711-11.268,12.699-18.004c2.74-6.984,6.296-1.667,12.794-12.081
	c6.484-10.514,21.022-36.383,24.266-41.357c3.224-5.036,0.941-12.242,0.518-18.186c-0.158-3.086,0.235-10.958,2.188-19.167
	C395.034,527.624,398.419,520.067,400.321,515.254 M798.236,656.85c0.928-1.103-1.654-4.344-3.066-6.864
	c-1.425-2.487-10.434-12.37-12.087-15.106c-1.479-2.676-13.016-19.166-17.144-24.611c-7.247-9.285-0.604-12.68-4.416-18.475
	c-1.514-2.487-10.797-13.654-21.621-24.733c-5.539-5.539-11.738-10.891-17.123-15.677c-8.464-7.55-14.951-13.244-15.939-12.303
	c-1.526,1.512,3.57,7.616,5.667,10.319c2.058,2.675,5.634,7.556,10.058,12.968c7.342,8.686,0.578,15.234,7.529,22.253
	c1.17,1.129,20.478,22.749,25.184,26.749c7.113,6.266,32.229,36.102,33.957,37.77C792.205,651.841,797.349,657.885,798.236,656.85
	 M683.6,614.079c6.891,11.576,8.793,9.284,11.69,9.378c6.581,0.188,21.149,15.92,24.142,20.202
	c2.736,4.376,26.407,27.913,32.431,33.614c2.642,2.514,21.291,32.727,23.711,30.588c2.548-2.171-7.093-16.9-8.639-20.107
	c-1.351-3.18-6.763-7.933-9.284-14.797c-2.521-6.763-13.627-23.664-17.23-29.076c-3.557-5.385-9.378-17.277-15.799-24.834
	c-5.868-6.669-1.129-8.497-7.254-14.346c-3.663-3.402-15.038-13.627-17.62-15.772c-2.46-2.104-11.805-10.386-17.217-15.038
	c-5.291-4.505-17.97-13.412-17.533-19.073c0.235-5.795-2.575-16.841-6.891-20.524c-3.133-2.582-12.276-17.244-22.724-25.869
	c-5.223-4.438-16.49-15.986-25.129-26.151c-8.148-9.661-14.293-18.508-16.176-17.278c-2.648,1.762,9.533,18.852,10.764,20.868
	c1.324,1.949,15.295,26.212,16.76,32.632c1.412,6.454,27.584,50.609,33.277,64.364C658.106,590.785,676.029,601.581,683.6,614.079
	 M523.268,490.83c2.326,6.804,10.824,46.71,13.311,55.013c2.521,8.249,5.157,8.659,6.542,11.866
	c5.028,12.43,12.061,12.968,15.758,14.003c10.272,3.086,11.093,16.901,17.654,29.144c6.104,11.583,11.866,21.937,17.251,34.434
	c5.438,12.586,33.021,80.66,37.728,91.08c1.688,3.745,14.764,3.745,13.312,0c-3.281-7.522-10.79-26.346-15.496-45.103
	c-3.019-12.175,8.356-3.522,1.137-23.006c-3.355-9.001-9.748-17.876-13.318-21.492c-3.678-3.59-7.187-19.039-10.084-25.937
	c-2.897-6.764-1.385-7.113-7.477-23.382c-4.551-11.738,8.311-7.866,0.928-26.186c-4.578-11.865-28.229-54.885-30.87-59.261
	c-1.419-2.421-5.997-9.815-11.597-18.663c-5.291-8.403-9.708-17.371-12.182-21.21c-4.941-7.899-13.957-25.211-18.945-32.35
	c-5.163-7.181-11.375-23.039-14.023-20.397c-2.515,2.3,7.569,26.125,11.818,41.258c4.391,15.079,1.103,21.184-1.445,25.526
	C520.813,480.417,520.813,483.247,523.268,490.83 M520.074,59.322l21.211-12.431l18.205,16.336l-5.291-24.269l21.244-12.773
	l-24.626-2.548L545.863,0l-9.682,22.158l-24.45-2.333l18.454,16.68L520.074,59.322z M909.31,338.162l20.048,14.192l-7.563,23.449
	l19.933-14.857l20.539,14.259l-7.873-23.51l19.597-14.158l-24.202,0.188l-7.724-23.354l-7.873,23.73L909.31,338.162z
	 M969.317,402.398l-12.276,21.775l-24.424-4.779l16.948,17.875l-11.96,21.398l22.502-10.607l17.264,17.814l-3.052-24.578
	l21.983-10.131l-23.887-4.377L969.317,402.398z M304.898,552.203c-1.997-1.514-25.271,22.252-40.582,38.776
	c-5.445,5.788-8.921,11.2-10.952,13.815c0,0-6.8,11.14-10.339,15.799c-3.65,4.592-12.666,17.902-16.568,23.63
	c-1.385,1.983-4.988,10.293-11.896,19.013c-3.415,4.376-6.988,10.01-13.724,18.629c-9.032,11.616-15.923,21.184-14.303,22.38
	c0.928,0.692,14.208-15.328,28.451-32.64c5.933-7.207,12.37-14.635,17.782-21.681c2.612-3.401,8.733-9.163,10.733-12.054
	c3.493-5.103,7.284-9.069,8.844-10.293c7.913-6.48,12.367-6.984,14.854-10.574c1.32-1.855,16.948-25.554,22.642-35.215
	C295.063,572.754,307.95,555.006,304.898,552.203 M913.088,706.947l4.773,24.518l10.729-22.252l23.933,3.436l-17.533-16.652
	l10.736-22.125l-22.231,11.523l-17.943-17.345l4.564,24.142l-21.688,11.549L913.088,706.947z M961.035,623.578l24.175-1.189
	l-20.363-13.002l6.219-23.759l-19.536,15.61l-20.908-13.66l9.109,22.972l-19.193,15.361l24.874-1.419l9.345,23.006L961.035,623.578z
	 M977.513,518.468l1.667-24.646l-16.27,19.2l-23.039-9.379l13.23,20.579l-15.838,18.851l24.135-6.132l13.593,20.834l1.613-24.646
	l23.396-5.728L977.513,518.468z M603.773,71.47l23.18-8.275l14.756,19.731l-0.611-25.016l23.408-8.438L640.795,42.3l-0.41-24.202
	l-13.768,19.953l-23.49-7.112l14.952,20.074L603.773,71.47z M893.391,273.361l-3.086,24.363l16.921-18.319l22.75,10.037
	l-12.114-21.62l16.599-17.466l-23.766,4.72l-12.114-21.493l-3.133,24.767l-24.391,4.753L893.391,273.361z M707.546,95.578
	l10.702,22.03l4.223-24.424l24.545-3.96l-21.816-11.55l4.249-23.799l-17.371,17.029l-21.81-11.422l10.864,22.501L683.27,99.296
	L707.546,95.578z M819.238,196.823l23.92,5.728l1.7,24.518l12.981-21.21l24.202,5.566l-15.939-18.878l12.921-20.457l-22.461,9.189
	l-15.858-18.695l1.606,24.988L819.238,196.823z M780.468,142.691l6.394,23.731l8.76-23.228l24.848,0.726l-19.274-15.422
	l8.767-22.534l-20.236,13.345l-19.247-15.456l6.353,24.175l-20.907,13.594L780.468,142.691z M67.541,293.254l22.877-10.138
	l16.636,18.568l-2.834-24.417l22.488-10.01l-24.394-5.002l-3.129-24.673l-12.212,21.433l-23.587-5.13l16.303,17.97L67.541,293.254z
	 M39.799,628.049l6.023,23.792l9.537-23.193l24.911,1.795l-19.008-15.517l9.189-22.783L49.459,605.42l-19.388-15.671l6.124,24.014
	l-20.632,12.713L39.799,628.049z M353.618,84.028l14.901-19.543l23.163,8.403L377.568,52.37l14.918-19.825l-23.651,6.797
	l-13.502-20.021l-0.645,24.202l-23.621,6.897l23.402,8.713L353.618,84.028z M273.476,95.107l3.869,24.578l10.955-22.03l24.263,3.839
	l-17.718-17.466l10.857-22.347l-22.014,11.301l-17.042-17.149l4.027,23.886l-21.886,11.422L273.476,95.107z M200.742,145.871
	l8.562,23.354l6.45-23.731l24.659-0.82l-20.787-13.781l6.404-24.074l-19.321,15.294l-20.111-13.532l8.403,22.723l-19.23,15.2
	L200.742,145.871z M83.591,735.56l4.941-24.578l24.673-2.897l-21.59-11.771l4.676-24.108l-18.081,17.028l-21.983-11.488
	l10.605,22.279L49.05,716.487l24.014-3.086L83.591,735.56z M435.649,63.57l18.427-16.329l21.1,12.652l-9.913-22.817l18.427-16.686
	l-24.578,2.271l-9.284-22.346l-5.415,23.664l-24.468,2.332l21.305,12.996L435.649,63.57z M139.091,209.227l12.794,21.177
	l1.838-24.33l24-5.627l-22.911-9.573l1.62-24.733l-16.115,18.724l-22.202-9.601l12.555,20.808l-15.97,18.568L139.091,209.227z
	 M35.99,379.326l20.565-14.191l19.923,14.918l-7.523-23.449l20.283-14.031l-24.955-0.255l-7.728-23.638l-7.963,23.416l-24.168-0.531
	l19.433,14.38L35.99,379.326z M21.59,470.279l17.436-17.998l22.394,11.013l-11.725-21.62l17.042-17.654l-24.454,4.471
	l-12.084-21.715l-3.288,24.417l-23.919,4.095l21.889,10.574L21.59,470.279z M24.881,562.146l13.782-20.834l23.983,6.487
	l-15.657-18.951l13.438-20.673l-23.21,9.097l-16.05-18.979l1.321,24.639L0,531.496l23.463,6.139L24.881,562.146z"/>
</svg>
